<?xml version="1.0" encoding="UTF-8" standalone="no"?>
<!-- Created with Inkscape (http://www.inkscape.org/) -->

<svg
   width="19.727196mm"
   height="24.111731mm"
   viewBox="0 0 19.727196 24.111731"
   version="1.1"
   id="svg1"
   xml:space="preserve"
   inkscape:version="1.3 (0e150ed6c4, 2023-07-21)"
   sodipodi:docname="iconv1.svg"
   xmlns:inkscape="http://www.inkscape.org/namespaces/inkscape"
   xmlns:sodipodi="http://sodipodi.sourceforge.net/DTD/sodipodi-0.dtd"
   xmlns="http://www.w3.org/2000/svg"
   xmlns:svg="http://www.w3.org/2000/svg"><sodipodi:namedview
     id="namedview1"
     pagecolor="#ffffff"
     bordercolor="#000000"
     borderopacity="0.25"
     inkscape:showpageshadow="2"
     inkscape:pageopacity="0.0"
     inkscape:pagecheckerboard="0"
     inkscape:deskcolor="#d1d1d1"
     inkscape:document-units="mm"
     inkscape:zoom="2.8044052"
     inkscape:cx="416.6659"
     inkscape:cy="376.72873"
     inkscape:window-width="1920"
     inkscape:window-height="1001"
     inkscape:window-x="-9"
     inkscape:window-y="-9"
     inkscape:window-maximized="1"
     inkscape:current-layer="layer1"
     showguides="true" /><defs
     id="defs1"><inkscape:path-effect
       effect="fillet_chamfer"
       id="path-effect11-2"
       is_visible="true"
       lpeversion="1"
       nodesatellites_param="F,0,0,1,0,0.79375,0,1 @ F,0,0,1,0,0.79375,0,1 @ F,0,0,1,0,0.79375,0,1 @ F,0,0,1,0,0.79375,0,1"
       radius="3"
       unit="px"
       method="auto"
       mode="F"
       chamfer_steps="1"
       flexible="false"
       use_knot_distance="true"
       apply_no_radius="true"
       apply_with_radius="true"
       only_selected="false"
       hide_knots="false" /><inkscape:path-effect
       effect="fillet_chamfer"
       id="path-effect11-9-1"
       is_visible="true"
       lpeversion="1"
       nodesatellites_param="F,0,0,1,0,0.79375,0,1 @ F,0,0,1,0,0.79375,0,1 @ F,0,0,1,0,0.79375,0,1 @ F,0,0,1,0,0.79375,0,1"
       radius="3"
       unit="px"
       method="auto"
       mode="F"
       chamfer_steps="1"
       flexible="false"
       use_knot_distance="true"
       apply_no_radius="true"
       apply_with_radius="true"
       only_selected="false"
       hide_knots="false" /><inkscape:path-effect
       effect="fillet_chamfer"
       id="path-effect11-8-8"
       is_visible="true"
       lpeversion="1"
       nodesatellites_param="F,0,0,1,0,0.79375,0,1 @ F,0,0,1,0,0.79375,0,1 @ F,0,0,1,0,0.79375,0,1 @ F,0,0,1,0,0.79375,0,1"
       radius="3"
       unit="px"
       method="auto"
       mode="F"
       chamfer_steps="1"
       flexible="false"
       use_knot_distance="true"
       apply_no_radius="true"
       apply_with_radius="true"
       only_selected="false"
       hide_knots="false" /></defs><g
     inkscape:label="Layer 1"
     inkscape:groupmode="layer"
     id="layer1"
     transform="translate(-73.42853,-123.62)"><ellipse
       style="fill:#e0e0e0;fill-opacity:1;stroke:#e0e0e0;stroke-width:0.0109618;stroke-opacity:1"
       id="path4-6"
       cx="76.322021"
       cy="127.90324"
       rx="2.5181766"
       ry="2.3395007" /><path
       style="fill:#00b7f6;fill-opacity:1;fill-rule:nonzero;stroke:#00b7f6;stroke-width:0.081;stroke-dasharray:none;stroke-opacity:1"
       id="rect7-6"
       width="5.8893423"
       height="14.028254"
       x="71.639816"
       y="88.718208"
       inkscape:linked-fill="path10"
       sodipodi:type="rect"
       inkscape:path-effect="#path-effect11-2"
       d="m 72.433566,88.718208 h 4.301843 a 0.79375,0.79375 45 0 1 0.79375,0.79375 v 12.440752 a 0.79375,0.79375 135 0 1 -0.79375,0.79375 h -4.301843 a 0.79375,0.79375 45 0 1 -0.79375,-0.79375 V 89.511958 a 0.79375,0.79375 135 0 1 0.79375,-0.79375 z"
       transform="translate(1.8292106,42.30099)" /><path
       style="fill:#00b7f6;fill-opacity:1;fill-rule:nonzero;stroke:#00b7f6;stroke-width:0.0813574;stroke-opacity:1"
       id="rect7-8-2"
       width="5.8893423"
       height="14.028254"
       x="71.639816"
       y="88.718208"
       inkscape:linked-fill="path10"
       sodipodi:type="rect"
       inkscape:path-effect="#path-effect11-9-1"
       d="m 72.433566,88.718208 h 4.301843 a 0.79375,0.79375 45 0 1 0.79375,0.79375 v 12.440752 a 0.79375,0.79375 135 0 1 -0.79375,0.79375 h -4.301843 a 0.79375,0.79375 45 0 1 -0.79375,-0.79375 V 89.511958 a 0.79375,0.79375 135 0 1 0.79375,-0.79375 z"
       transform="matrix(0.99711888,0,0,1.4648369,9.0760686,-2.8346644)" /><path
       style="fill:#00b7f6;fill-opacity:1;fill-rule:nonzero;stroke:#00b7f6;stroke-width:0.0813574;stroke-opacity:1"
       id="rect7-3-1"
       width="5.8893423"
       height="14.028254"
       x="71.639816"
       y="88.718208"
       inkscape:linked-fill="path10"
       sodipodi:type="rect"
       inkscape:path-effect="#path-effect11-8-8"
       d="m 72.433566,88.718208 h 4.301843 a 0.79375,0.79375 45 0 1 0.79375,0.79375 v 12.440752 a 0.79375,0.79375 135 0 1 -0.79375,0.79375 h -4.301843 a 0.79375,0.79375 45 0 1 -0.79375,-0.79375 V 89.511958 a 0.79375,0.79375 135 0 1 0.79375,-0.79375 z"
       transform="matrix(0.99674774,0,0,1.5312591,15.838162,-12.168279)" /></g></svg>
